# xmcd CD database file
#
# Track frame offsets:
#	150
#	44335
#	71782
#	108052
#	129580
#	142655
#	174172
#	190360
#	233170
#	245062
#	283830
#	298710
#
# Disc length: 4318 seconds
#
# Revision: 2
# Processed by: cddbd v1.5.1PL0 Copyright (c) Steve Scherf et al.
# Submitted via: CDex 1.51
#
DISCID=b110dc0c
DTITLE=Weather Report - 8:30
DYEAR=1994
DGENRE=Jazz
TTITLE0=Black Market
TTITLE1=Teen Town
TTITLE2=A Remark You Made
TTITLE3=Slang
TTITLE4=In a Silent Way
TTITLE5=Birdland
TTITLE6=Thanks for the Memories
TTITLE7=Badia/Boogie Woogie Waltz Medley
TTITLE8=8:30
TTITLE9=Brown Street
TTITLE10=The Orphan
TTITLE11=Sightseeing
EXTD=1979\nJoe Zawinul: keyboards\nWayne Shorter: sax\nJaco Pastorius: bass\nPeter Erskine: drums\nErich Zawinul: percussion YEAR: 1994
EXTT0=
EXTT1=
EXTT2=
EXTT3=
EXTT4=
EXTT5=
EXTT6=
EXTT7=
EXTT8=
EXTT9=
EXTT10=
EXTT11=
PLAYORDER=
